PathFileType	4	(X/Y/Z)	D:\Share\Shared_Data\Ergonomics\Sit To Stand Pertubation\S0\Perturbed STS.trc
DataRate	CameraRate	NumFrames	NumMarkers	Units	OrigDataRate	OrigDataStartFrame	OrigNumFrames	
100	100	8	18	m	100	6116	181
Frame#	Time	R_Heel			R_ASIS			R_Pelvis			V_Sacral			L_Pelvis			L_ASIS			Clavical			R_Acromium			L_Acromium			Sternum			Torso			R_Thigh_Med			R_Thigh_Lat			R_Thigh			R_Shank_Med			R_Shank_Lat			R_Shank			R_Toe			
		X1	Y1	Z1	X2	Y2	Z2	X3	Y3	Z3	X4	Y4	Z4	X5	Y5	Z5	X6	Y6	Z6	X7	Y7	Z7	X8	Y8	Z8	X9	Y9	Z9	X10	Y10	Z10	X11	Y11	Z11	X12	Y12	Z12	X13	Y13	Z13	X14	Y14	Z14	X15	Y15	Z15	X16	Y16	Z16	X17	Y17	Z17	X18	Y18	Z18	

6116	17.5	0.1661046	0.053378517	0.15183003	-0.10817247	0.74386981	0.13763507	-0.23788072	0.72108319	0.17725475	-0.34884076	0.68393695	-0.05472282	-0.20333376	0.71579041	-0.22944025	-0.083198967	0.74216943	-0.18103075	-0.052888878	1.1134928	-0.028188017	-0.13105917	1.1829172	0.1120798	-0.13085216	1.1849432	-0.18357829	-0.0315422	1.0178979	-0.043039333	-0.04993948	1.0631411	-0.14928267	0.24490633	0.51116275	0.068452187	0.21416754	0.52805243	0.20046449	0.13841051	0.66042572	0.11674039	0.26074579	0.11814227	0.11202787	0.2022119	0.09760112	0.19851846	0.2161472	0.32605447	0.21609306	0.38518863	0.060290424	0.14293269
6117	17.51	0.1649189	0.05381813	0.15177383	-0.10811989	0.74362604	0.13760326	-0.23776562	0.72126727	0.17723636	-0.34876648	0.68419958	-0.054748753	-0.20320828	0.71602057	-0.22948679	-0.083134346	0.74204333	-0.18103674	-0.050736851	1.1128499	-0.028133631	-0.12855569	1.1827081	0.11211218	-0.12835406	1.1846868	-0.18349269	-0.029908815	1.0171391	-0.042979313	-0.048048714	1.0624724	-0.14920897	0.24470157	0.51136206	0.068428497	0.21406802	0.52830023	0.2004615	0.13832487	0.66053571	0.11668677	0.2597337	0.11832448	0.11200068	0.20112399	0.097925629	0.19852109	0.21554904	0.32634439	0.21606035	0.38400571	0.060085262	0.14292566
6118	17.52	0.16370424	0.054223652	0.15172531	-0.10800805	0.74343506	0.13758475	-0.23764101	0.72145294	0.17722443	-0.34868298	0.68447821	-0.054773369	-0.20306017	0.71625452	-0.22952748	-0.083055214	0.74190735	-0.18103581	-0.048489906	1.1121604	-0.028075457	-0.12594262	1.182468	0.11214675	-0.12574345	1.1844042	-0.18340228	-0.028214495	1.0163301	-0.042914375	-0.046078148	1.061759	-0.14912941	0.24448232	0.51150043	0.068399818	0.21396219	0.52849103	0.20045389	0.13824586	0.66060846	0.11663554	0.25869434	0.11844907	0.11196558	0.20003375	0.098195091	0.19852551	0.21494344	0.32657959	0.21602023	0.38278455	0.059783466	0.14286197
6119	17.53	0.16246593	0.054582832	0.15168025	-0.10779842	0.74334894	0.13758818	-0.23750391	0.72164081	0.17721947	-0.34858746	0.68477557	-0.054796505	-0.20288765	0.71649164	-0.22956261	-0.082929329	0.74177271	-0.1810294	-0.046146412	1.1114248	-0.028013597	-0.12321992	1.1821963	0.11218369	-0.12302034	1.1840951	-0.18330728	-0.026460323	1.0154719	-0.042844891	-0.044027565	1.0610028	-0.14904544	0.24424698	0.51156949	0.06836718	0.21384909	0.52861658	0.20044299	0.13817578	0.66064337	0.11659013	0.25763071	0.11850953	0.11191908	0.19893713	0.098401222	0.19852744	0.21433305	0.32675156	0.21597206	0.38153076	0.059391071	0.14274065
6120	17.54	0.16120879	0.05488319	0.151632	-0.10747153	0.7433913	0.1376167	-0.23735083	0.72183307	0.17722144	-0.34847565	0.68509454	-0.054818615	-0.20268933	0.71673181	-0.22959286	-0.082742126	0.74164453	-0.18101793	-0.043705288	1.1106443	-0.027948465	-0.12038663	1.1818929	0.11222276	-0.12018427	1.1837606	-0.18320796	-0.024646252	1.0145667	-0.042770828	-0.041896786	1.0602073	-0.14895865	0.24399532	0.51156467	0.068331673	0.21372816	0.52867047	0.2004305	0.13811615	0.66063947	0.1165538	0.25654568	0.1185011	0.11185735	0.19782782	0.098538704	0.19852301	0.2137193	0.32685278	0.2159147	0.38025024	0.058916271	0.14256567
6121	17.55	0.15993803	0.055112221	0.1515728	-0.10703704	0.74354059	0.13766533	-0.23717819	0.7220329	0.17722993	-0.34834274	0.68543842	-0.05484037	-0.20246376	0.71697614	-0.22961929	-0.082493286	0.74152319	-0.18100117	-0.041166176	1.1098207	-0.027880665	-0.11744101	1.1815601	0.11226317	-0.11723393	1.183401	-0.18310477	-0.022769945	1.0136169	-0.042692272	-0.039685642	1.0593746	-0.14887035	0.24372908	0.51148438	0.068294624	0.21359846	0.52864783	0.20041795	0.13806798	0.6605946	0.11652923	0.25544254	0.11842039	0.1117767	0.19670393	0.098601814	0.19850607	0.21310193	0.32687662	0.21584695	0.37895026	0.058368332	0.14234517
6122	17.56	0.15866069	0.055258141	0.15149481	-0.10652666	0.74374323	0.13772438	-0.2369825	0.72224469	0.177244	-0.3481842	0.68581085	-0.054862583	-0.20220941	0.7172262	-0.22964345	-0.082188759	0.74140717	-0.18097867	-0.038529259	1.1089562	-0.027810787	-0.11438149	1.1811995	0.11230389	-0.11416739	1.1830164	-0.18299808	-0.0208262	1.0126262	-0.042610039	-0.037393547	1.0585078	-0.1487814	0.24345227	0.51132928	0.06825782	0.2134585	0.52854474	0.20040671	0.1380322	0.66050549	0.11651801	0.25432622	0.11826487	0.11167416	0.19556998	0.098583755	0.19846713	0.21247948	0.32681787	0.21576863	0.37764029	0.057756943	0.14209088
6123	17.57	0.15738731	0.055310394	0.15139156	-0.10597893	0.74394067	0.13778464	-0.23676044	0.72247229	0.1772621	-0.34799573	0.68621539	-0.054886066	-0.20192479	0.71748425	-0.22966693	-0.081834778	0.74129437	-0.18095013	-0.035795158	1.1080532	-0.027739326	-0.1112066	1.180813	0.11234393	-0.11098244	1.1826066	-0.18288818	-0.018807905	1.0115978	-0.042525597	-0.035019005	1.0576085	-0.14869229	0.24317017	0.51110046	0.068223648	0.21330656	0.52835797	0.20039772	0.1380107	0.66036737	0.1165204	0.25320515	0.1180331	0.11154801	0.19443393	0.098478844	0.19839565	0.21185077	0.32667368	0.21568095	0.37633295	0.057093651	0.14181749
